<svg xmlns="http://www.w3.org/2000/svg" xmlns:xlink="http://www.w3.org/1999/xlink" viewBox="0 0 59.49 53.64"><defs><style>.cls-1,.cls-3,.cls-4,.cls-5,.cls-6,.cls-7{fill:none;}.cls-2{clip-path:url(#clip-path);}.cls-3,.cls-4,.cls-5,.cls-6,.cls-7{stroke:#193446;}.cls-3,.cls-4,.cls-5,.cls-7{stroke-linecap:round;stroke-linejoin:round;}.cls-3{stroke-width:1px;}.cls-4,.cls-6{stroke-width:0.76px;}.cls-5{stroke-width:0.9px;}.cls-6{stroke-miterlimit:10;}.cls-7{stroke-width:1.2px;}.cls-8{fill:#193446;}</style><clipPath id="clip-path" transform="translate(0 0)"><circle class="cls-1" cx="27.3" cy="26.82" r="26.82"/></clipPath></defs><title>svgAsset 11</title><g id="Layer_2" data-name="Layer 2"><g id="critical-facilities-affected"><g class="cls-2"><path class="cls-3" d="M27.32,20.66l-9.23,6.82v5.63a6.8,6.8,0,0,1,5.6,1.34l.25.16V30.32h6.74v5.07a9.9,9.9,0,0,0,1.65-.94A6.94,6.94,0,0,1,36.56,33V27.53Z" transform="translate(0 0)"/><path class="cls-3" d="M30.68,35.39V30.32H23.94v4.29A6.58,6.58,0,0,0,30.68,35.39Z" transform="translate(0 0)"/><circle class="cls-4" cx="27.32" cy="26.1" r="1.42"/><path class="cls-5" d="M38.14,25.14l-8.82-6.57a10.28,10.28,0,0,0-1.69-1.08,1.35,1.35,0,0,0-.6,0,13.38,13.38,0,0,0-1.51.9l-9,6.75a.44.44,0,0,0-.19.36v2.32a.46.46,0,0,0,.73.37l10-7.46a.47.47,0,0,1,.55,0l10,7.46a.46.46,0,0,0,.73-.37V25.5A.43.43,0,0,0,38.14,25.14Z" transform="translate(0 0)"/><path class="cls-3" d="M27.6,17.2l1.75,1.3V15.3H25.3v3.2l1.75-1.3A.47.47,0,0,1,27.6,17.2Z" transform="translate(0 0)"/><line class="cls-6" x1="27.36" y1="15.18" x2="27.36" y2="11.14"/><path class="cls-4" d="M27.3,8.61a3.42,3.42,0,0,1,2.21.07c.92.38,1.19,1.07,2,1.2a2.3,2.3,0,0,0,1.59-.41l-.06,2.41a2.5,2.5,0,0,1-1.75.53c-.75-.11-1-.62-1.88-.94a3.64,3.64,0,0,0-2.09-.11Z" transform="translate(0 0)"/><path class="cls-7" d="M17.2,37.87A6.37,6.37,0,0,1,23,39.09a7,7,0,0,0,8.83,0,6.77,6.77,0,0,1,8.49,0,6.76,6.76,0,0,0,8.65,0c3.29-2.37,6.34-1.59,9.39.48a3.53,3.53,0,0,1,.56.45" transform="translate(0 0)"/><path class="cls-7" d="M.6,42.49a6.35,6.35,0,0,1,5.76,1.22,7,7,0,0,0,8.83,0,6.8,6.8,0,0,1,8.5,0,6.76,6.76,0,0,0,8.64,0c3.29-2.37,6.34-1.6,9.4.48a3,3,0,0,1,.56.44" transform="translate(0 0)"/><path class="cls-7" d="M.6,33.16a6.35,6.35,0,0,1,5.76,1.22,7,7,0,0,0,8.83,0,6.78,6.78,0,0,1,8.5,0,6.76,6.76,0,0,0,8.64,0c3.29-2.37,6.34-1.6,9.4.47a3.53,3.53,0,0,1,.56.45" transform="translate(0 0)"/></g><path class="cls-8" d="M27.3,1.52A25.3,25.3,0,1,1,2,26.82,25.33,25.33,0,0,1,27.3,1.52M27.3,0A26.82,26.82,0,1,0,54.12,26.82,26.82,26.82,0,0,0,27.3,0Z" transform="translate(0 0)"/></g></g></svg>