<svg xmlns="http://www.w3.org/2000/svg" xmlns:xlink="http://www.w3.org/1999/xlink" version="1.1" x="0px" y="0px" viewBox="0 0 83.334 100" enable-background="new 0 0 83.334 100" xml:space="preserve"><path d="M5.556,0C2.488,0,0,2.487,0,5.556V100h11.111V5.556C11.111,2.487,8.624,0,5.556,0z"></path><path d="M50,12.5c-9.722,0-13.889-6.944-33.333-6.944v41.667c19.444,0,23.611,6.945,33.333,6.945  c11.111,0,8.334-11.111,33.334-4.167V8.333C58.334,1.389,61.306,12.5,50,12.5z M50,47.222c-2.3,0-4.166-1.868-4.166-4.167  c0-2.3,1.866-4.167,4.166-4.167c2.301,0,4.167,1.867,4.167,4.167C54.167,45.354,52.301,47.222,50,47.222z M52.778,33.333h-5.556  l-1.389-15.278h8.333L52.778,33.333z"></path></svg>