<?xml version="1.0" encoding="iso-8859-1"?>
<!-- Generator: Adobe Illustrator 19.0.0, SVG Export Plug-In . SVG Version: 6.00 Build 0)  -->
<svg version="1.1" id="Capa_1" xmlns="http://www.w3.org/2000/svg" xmlns:xlink="http://www.w3.org/1999/xlink" x="0px" y="0px"
	 viewBox="0 0 496.366 496.366" style="enable-background:new 0 0 496.366 496.366;" xml:space="preserve">
<g>
	<g>
		<path d="M488.211,392.366h-9.6c-6.4,0-12.8,2.4-16.8,7.2l-6.4,6.4c-1.6,1.6-3.2,2.4-5.6,2.4h-2.4c-2.4,0-4-0.8-5.6-2.4l-6.4-6.4
			c-5.6-4.8-11.2-7.2-17.6-7.2h-2.4c-6.4,0-12.8,2.4-16.8,7.2l-6.4,6.4c-1.6,1.6-3.2,2.4-5.6,2.4h-2.4c-2.4,0-4-0.8-5.6-2.4
			l-6.4-6.4c-6.4-4.8-12-7.2-18.4-7.2h-2.4c-6.4,0-12.8,2.4-16.8,7.2l-6.4,6.4c-1.6,1.6-3.2,2.4-5.6,2.4h-2.4c-2.4,0-4-0.8-5.6-2.4
			l-6.4-6.4c-6.4-4.8-12-7.2-18.4-7.2h-2.4c-6.4,0-12.8,2.4-16.8,7.2l-6.4,6.4c-1.6,1.6-3.2,2.4-5.6,2.4h-2.4c-2.4,0-4-0.8-5.6-2.4
			l-6.4-6.4c-0.8-0.8-1.6-1.6-2.4-1.6v-133.6h24c4.8,0,8-3.2,8-8c0-2.4-1.6-4.8-3.2-6.4l-128-88c-2.4-1.6-6.4-1.6-8.8,0l-128,88
			c-4,2.4-4.8,7.2-2.4,11.2c0,1.6,2.4,3.2,4.8,3.2h24v128h-1.6c-6.4,0-12.8,2.4-16.8,7.2l-11.2,11.2c-1.6,1.6-2.4,3.2-2.4,5.6v72
			c0,4.8,3.2,8,8,8h480c4.8,0,8-3.2,8-8v-88C496.211,395.566,493.011,392.366,488.211,392.366z M136.211,177.966l102.4,70.4h-204.8
			L136.211,177.966z M136.211,312.366h-64c-4.8,0-8,3.2-8,8v88h-1.6c-2.4,0-4-0.8-5.6-2.4l-6.4-6.4c-0.8-0.8-1.6-1.6-2.4-1.6v-101.6
			h176v96h-1.6c-6.4,0-12.8,2.4-16.8,7.2l-6.4,6.4c-1.6,1.6-3.2,2.4-5.6,2.4h-2.4c-2.4,0-4-0.8-5.6-2.4l-6.4-6.4
			c-5.6-4.8-11.2-7.2-17.6-7.2h-2.4c-5.6,0-10.4,1.6-14.4,4.8v-76.8C144.211,315.566,141.011,312.366,136.211,312.366z
			 M129.011,328.366v80h-0.8h-1.6c-2.4,0-4-0.8-5.6-2.4l-6.4-6.4c-4.8-4.8-10.4-7.2-16.8-7.2h-2.4c-5.6,0-10.4,1.6-14.4,4.8v-68.8
			H129.011z M48.211,280.366v-16h176v16H48.211z M480.211,480.366h-464v-20.8l8.8-8.8c1.6-1.6,4-2.4,5.6-2.4h2.4
			c2.4,0,4,0.8,5.6,2.4l6.4,6.4c5.6,4.8,11.2,7.2,17.6,7.2h2.4c6.4,0,12.8-2.4,16.8-7.2l6.4-6.4c1.6-1.6,3.2-2.4,5.6-2.4h2.4
			c2.4,0,4,0.8,5.6,2.4l6.4,6.4c4.8,4.8,10.4,7.2,16.8,7.2h2.4c6.4,0,12.8-2.4,16.8-7.2l6.4-6.4c1.6-1.6,3.2-2.4,5.6-2.4h2.4
			c2.4,0,4,0.8,5.6,2.4l6.4,6.4c4.8,4.8,10.4,7.2,16.8,7.2h2.4c6.4,0,12.8-2.4,16.8-7.2l6.4-6.4c1.6-1.6,3.2-2.4,5.6-2.4h2.4
			c2.4,0,4,0.8,5.6,2.4l6.4,6.4c4.8,4.8,10.4,7.2,16.8,7.2h2.4c6.4,0,12.8-2.4,16.8-7.2l6.4-6.4c1.6-1.6,3.2-2.4,5.6-2.4h2.4
			c2.4,0,4,0.8,5.6,2.4l6.4,6.4c4.8,4.8,10.4,7.2,16.8,7.2h2.4c6.4,0,12.8-2.4,16.8-7.2l6.4-6.4c1.6-1.6,3.2-2.4,5.6-2.4h2.4
			c2.4,0,4,0.8,5.6,2.4l6.4,6.4c4.8,4.8,10.4,7.2,16.8,7.2h2.4c6.4,0,12.8-2.4,16.8-7.2l6.4-6.4c1.6-1.6,3.2-2.4,5.6-2.4h2.4
			c2.4,0,4,0.8,5.6,2.4l6.4,6.4c4.8,4.8,10.4,7.2,16.8,7.2h2.4c6.4,0,12.8-2.4,16.8-7.2l6.4-6.4c1.6-1.6,3.2-2.4,5.6-2.4h12V480.366
			z M480.211,432.366h-1.6c-6.4,0-12.8,2.4-16.8,7.2l-6.4,6.4c-1.6,1.6-3.2,2.4-5.6,2.4h-2.4c-2.4,0-4-0.8-5.6-2.4l-6.4-6.4
			c-5.6-4.8-11.2-7.2-17.6-7.2h-2.4c-6.4,0-12.8,2.4-16.8,7.2l-6.4,6.4c-1.6,1.6-3.2,2.4-5.6,2.4h-2.4c-2.4,0-4-0.8-5.6-2.4
			l-6.4-6.4c-6.4-4.8-12-7.2-18.4-7.2h-2.4c-6.4,0-12.8,2.4-16.8,7.2l-6.4,6.4c-1.6,1.6-3.2,2.4-5.6,2.4h-2.4c-2.4,0-4-0.8-5.6-2.4
			l-6.4-6.4c-6.4-4.8-12-7.2-18.4-7.2h-2.4c-6.4,0-12.8,2.4-16.8,7.2l-6.4,6.4c-1.6,1.6-3.2,2.4-5.6,2.4h-2.4c-2.4,0-4-0.8-5.6-2.4
			l-6.4-6.4c-6.4-4.8-12-7.2-18.4-7.2h-2.4c-6.4,0-12.8,2.4-16.8,7.2l-6.4,6.4c-1.6,1.6-3.2,2.4-5.6,2.4h-2.4c-2.4,0-4-0.8-5.6-2.4
			l-6.4-6.4c-6.4-4.8-12-7.2-18.4-7.2h-2.4c-6.4,0-12.8,2.4-16.8,7.2l-6.4,6.4c-1.6,1.6-3.2,2.4-5.6,2.4h-2.4c-2.4,0-4-0.8-5.6-2.4
			l-6.4-6.4c-6.4-4.8-12-7.2-18.4-7.2h-2.4c-6.4,0-12.8,2.4-16.8,7.2l-6.4,6.4c-2.4,1.6-4.8,2.4-6.4,2.4h-3.2c-2.4,0-4-0.8-5.6-2.4
			l-6.4-6.4c-4.8-4.8-10.4-7.2-16.8-7.2h-3.2c-5.6,0-10.4,1.6-14.4,4.8v-17.6l8.8-8.8c1.6-1.6,4-2.4,5.6-2.4h2.4
			c2.4,0,4,0.8,5.6,2.4l6.4,6.4c5.6,4.8,11.2,7.2,17.6,7.2h2.4c6.4,0,12.8-2.4,16.8-7.2l6.4-6.4c1.6-1.6,3.2-2.4,5.6-2.4h2.4
			c2.4,0,4,0.8,5.6,2.4l6.4,6.4c4.8,4.8,10.4,7.2,16.8,7.2h2.4c6.4,0,12.8-2.4,16.8-7.2l6.4-6.4c1.6-1.6,3.2-2.4,5.6-2.4h2.4
			c2.4,0,4,0.8,5.6,2.4l6.4,6.4c4.8,4.8,10.4,7.2,16.8,7.2h2.4c6.4,0,12.8-2.4,16.8-7.2l6.4-6.4c1.6-1.6,3.2-2.4,5.6-2.4h2.4
			c2.4,0,4,0.8,5.6,2.4l6.4,6.4c4.8,4.8,10.4,7.2,16.8,7.2h2.4c6.4,0,12.8-2.4,16.8-7.2l6.4-6.4c1.6-1.6,3.2-2.4,5.6-2.4h2.4
			c2.4,0,4,0.8,5.6,2.4l6.4,6.4c4.8,4.8,10.4,7.2,16.8,7.2h2.4c6.4,0,12.8-2.4,16.8-7.2l6.4-6.4c1.6-1.6,3.2-2.4,5.6-2.4h2.4
			c2.4,0,4,0.8,5.6,2.4l6.4,6.4c4.8,4.8,10.4,7.2,16.8,7.2h2.4c6.4,0,12.8-2.4,16.8-7.2l6.4-6.4c1.6-1.6,3.2-2.4,5.6-2.4h2.4
			c2.4,0,4,0.8,5.6,2.4l6.4,6.4c4.8,4.8,10.4,7.2,16.8,7.2h2.4c6.4,0,12.8-2.4,16.8-7.2l6.4-6.4c1.6-1.6,3.2-2.4,5.6-2.4h12V432.366
			z"/>
	</g>
</g>
<g>
	<g>
		<path d="M200.211,312.366h-32c-4.8,0-8,3.2-8,8v32c0,4.8,3.2,8,8,8h32c4.8,0,8-3.2,8-8v-32
			C208.211,315.566,205.011,312.366,200.211,312.366z M192.211,344.366h-16v-16h16V344.366z"/>
	</g>
</g>
<g>
	<g>
		<path d="M191.411,79.566c-0.8-17.6-14.4-31.2-32-31.2c-4-16.8-21.6-27.2-39.2-23.2c-1.6,0.8-3.2,0.8-4.8,1.6
			c-12-24-40.8-33.6-64-21.6c-16.8,8-27.2,24.8-27.2,43.2v0.8c-16.8,4.8-27.2,22.4-23.2,39.2c4,14.4,16.8,24,31.2,24h128
			C177.811,112.366,192.211,97.166,191.411,79.566z M160.211,96.366h-128c-8.8,0-16-7.2-16-16c-0.8-8.8,6.4-16,15.2-16h0.8
			c2.4,0,4.8-0.8,6.4-2.4c1.6-1.6,2.4-4.8,1.6-7.2c-2.4-17.6,9.6-33.6,26.4-36.8c16-3.2,32,7.2,36.8,23.2c0.8,4,4.8,7.2,9.6,6.4
			c1.6,0,3.2-0.8,4-2.4c6.4-6.4,16-6.4,22.4,0c3.2,2.4,4.8,6.4,4.8,11.2v0.8c0,4.8,3.2,8,7.2,8.8c0.8,0,2.4,0,3.2-0.8
			c1.6-0.8,4-0.8,5.6-0.8c8.8,0,16,7.2,16,16S169.011,96.366,160.211,96.366z"/>
	</g>
</g>
<g>
	<g>
		<path d="M472.211,49.166v-0.8c0-26.4-21.6-48-48-48c-18.4,0-35.2,10.4-43.2,26.4c-8-4-17.6-4-26.4,0c-7.2-16-24-26.4-42.4-26.4
			c-26.4,0-48,21.6-48,48v0.8c-16.8,4.8-27.2,21.6-23.2,39.2c4,14.4,16.8,24,31.2,24h192c17.6,0,32-14.4,32-32
			C496.211,65.966,486.611,53.166,472.211,49.166z M309.011,96.366h-36.8c-8.8,0-16-7.2-16-16s6.4-16,15.2-16h0.8
			c2.4,0,4.8-0.8,6.4-2.4c1.6-1.6,2.4-4.8,1.6-7.2c-4-17.6,7.2-34.4,24.8-37.6c16-3.2,31.2,5.6,36.8,20.8c-2.4,3.2-4,6.4-4.8,10.4
			c-17.6-0.8-32,12.8-32.8,30.4C304.211,85.166,305.811,90.766,309.011,96.366z M464.211,96.366h-128c-8.8,0-16-7.2-16-16
			s7.2-16,16-16c1.6,0,4,0,5.6,0.8c4,1.6,8.8-0.8,10.4-4.8c0-0.8,0-1.6,0-3.2v-0.8c0-8.8,7.2-16,16-16c4,0,8,1.6,11.2,4.8
			s8,3.2,11.2,0c0.8-0.8,1.6-2.4,2.4-4c4.8-16.8,22.4-27.2,39.2-22.4c16,4,26.4,20,23.2,36.8c-0.8,2.4,0,4.8,1.6,7.2
			c1.6,0.8,4,1.6,7.2,1.6c8.8,0,16,7.2,16,16S473.011,96.366,464.211,96.366z"/>
	</g>
</g>
<g>
	<g>
		<path d="M447.411,173.166c-1.6-3.2-4-4.8-7.2-4.8h-28.8l26.4-26.4c3.2-3.2,3.2-8,0-11.2c-1.6-1.6-3.2-2.4-5.6-2.4h-56
			c-3.2,0-6.4,1.6-7.2,4.8l-32,72c-1.6,4,0,8.8,4,10.4c0.8,0.8,2.4,0.8,3.2,0.8h22.4l-14.4,62.4c-0.8,4,1.6,8.8,6.4,9.6
			c3.2,0.8,6.4-0.8,8-3.2l80-104C448.211,178.766,449.011,175.566,447.411,173.166z M376.211,246.766l8-36.8c0.8-4-1.6-8.8-6.4-9.6
			c-0.8,0-0.8,0-1.6,0h-20l24.8-56h31.2l-26.4,26.4c-3.2,3.2-3.2,8,0,11.2c1.6,1.6,3.2,2.4,5.6,2.4h32L376.211,246.766z"/>
	</g>
</g>
<g>
	<g>
		<rect x="464.211" y="128.366" width="16" height="16"/>
	</g>
</g>
<g>
	<g>
		<rect x="480.211" y="160.366" width="16" height="16"/>
	</g>
</g>
<g>
	<g>
		<rect x="456.211" y="192.366" width="16" height="16"/>
	</g>
</g>
<g>
	<g>
		<rect x="440.211" y="224.366" width="16" height="16"/>
	</g>
</g>
<g>
	<g>
		<rect x="424.211" y="288.366" width="16" height="16"/>
	</g>
</g>
<g>
	<g>
		<rect x="456.211" y="256.366" width="16" height="16"/>
	</g>
</g>
<g>
	<g>
		<rect x="272.211" y="128.366" width="16" height="16"/>
	</g>
</g>
<g>
	<g>
		<rect x="320.211" y="128.366" width="16" height="16"/>
	</g>
</g>
<g>
	<g>
		<rect x="304.211" y="160.366" width="16" height="16"/>
	</g>
</g>
<g>
	<g>
		<rect x="240.211" y="160.366" width="16" height="16"/>
	</g>
</g>
<g>
	<g>
		<rect x="272.211" y="192.366" width="16" height="16"/>
	</g>
</g>
<g>
	<g>
		<rect x="304.211" y="224.366" width="16" height="16"/>
	</g>
</g>
<g>
	<g>
		<rect x="320.211" y="256.366" width="16" height="16"/>
	</g>
</g>
<g>
	<g>
		<rect x="408.211" y="256.366" width="16" height="16"/>
	</g>
</g>
<g>
	<g>
		<rect x="456.211" y="304.366" width="16" height="16"/>
	</g>
</g>
<g>
	<g>
		<rect x="352.211" y="304.366" width="16" height="16"/>
	</g>
</g>
<g>
	<g>
		<rect x="304.211" y="304.366" width="16" height="16"/>
	</g>
</g>
<g>
	<g>
		<rect x="16.211" y="128.366" width="16" height="16"/>
	</g>
</g>
<g>
	<g>
		<rect x="64.211" y="128.366" width="16" height="16"/>
	</g>
</g>
<g>
	<g>
		<rect x="112.211" y="128.366" width="16" height="16"/>
	</g>
</g>
<g>
	<g>
		<rect x="32.211" y="160.366" width="16" height="16"/>
	</g>
</g>
<g>
	<g>
		<rect x="80.211" y="160.366" width="16" height="16"/>
	</g>
</g>
<g>
	<g>
		<rect x="16.211" y="192.366" width="16" height="16"/>
	</g>
</g>
<g>
	<g>
		<rect x="160.211" y="144.366" width="16" height="16"/>
	</g>
</g>
<g>
</g>
<g>
</g>
<g>
</g>
<g>
</g>
<g>
</g>
<g>
</g>
<g>
</g>
<g>
</g>
<g>
</g>
<g>
</g>
<g>
</g>
<g>
</g>
<g>
</g>
<g>
</g>
<g>
</g>
</svg>
