<svg xmlns="http://www.w3.org/2000/svg" viewBox="0 0 53.64 53.64"><defs><style>.cls-1,.cls-2,.cls-3,.cls-4{fill:none;stroke:#193446;}.cls-1,.cls-2,.cls-3{stroke-linecap:round;stroke-linejoin:round;}.cls-1{stroke-width:1px;}.cls-2{stroke-width:0.9px;}.cls-3,.cls-4{stroke-width:0.76px;}.cls-4{stroke-miterlimit:10;}.cls-5{fill:#193446;}</style></defs><title>svgAsset 10</title><g id="Layer_2" data-name="Layer 2"><g id="Icon_Critical-facilities"><polygon class="cls-1" points="26.84 20.66 36.07 27.53 36.07 38.69 17.61 38.69 17.61 27.48 26.84 20.66"/><path class="cls-2" d="M37.66,25.14l-8.82-6.57a10.28,10.28,0,0,0-1.69-1.08,1.35,1.35,0,0,0-.6,0,12.5,12.5,0,0,0-1.51.9L16,25.14a.45.45,0,0,0-.18.36v2.32a.46.46,0,0,0,.73.37l10-7.46a.45.45,0,0,1,.54,0l10,7.46a.46.46,0,0,0,.73-.37V25.5A.45.45,0,0,0,37.66,25.14Z"/><rect class="cls-1" x="23.46" y="30.32" width="6.74" height="8.37"/><circle class="cls-3" cx="26.84" cy="26.1" r="1.42"/><path class="cls-1" d="M27.11,17.2l1.75,1.3V15.3h-4v3.2l1.75-1.3A.45.45,0,0,1,27.11,17.2Z"/><line class="cls-4" x1="26.88" y1="15.18" x2="26.88" y2="11.14"/><path class="cls-3" d="M26.82,8.61A3.42,3.42,0,0,1,29,8.68c.92.38,1.19,1.07,2,1.2a2.31,2.31,0,0,0,1.59-.41l-.06,2.41a2.51,2.51,0,0,1-1.76.53c-.74-.11-1-.62-1.87-.94a3.65,3.65,0,0,0-2.09-.11Z"/><path class="cls-5" d="M26.82,1.52a25.3,25.3,0,1,1-25.3,25.3,25.33,25.33,0,0,1,25.3-25.3m0-1.52A26.82,26.82,0,1,0,53.64,26.82,26.82,26.82,0,0,0,26.82,0Z"/></g></g></svg>