<svg xmlns:xlink="http://www.w3.org/1999/xlink" xmlns="http://www.w3.org/2000/svg" stroke-width="0.501" stroke-linejoin="bevel" fill-rule="evenodd" version="1.1" overflow="visible" viewBox="0 0 96 120" x="0px" y="0px"><g fill="none" stroke="black" font-family="Times New Roman" font-size="16" transform="scale(1 -1)"><g transform="translate(0 -96)"><g><g stroke-linejoin="round" stroke-linecap="round" stroke="none" stroke-width="0.75" fill="#000000" stroke-miterlimit="79.8403193612775"><path d="M 6,5.828 L 6,16.823 C 12.96,18.145 12.302,22.59 18.155,21.857 C 17.326,18.074 21.424,15.764 27,16.823 C 33.96,18.145 33.302,22.59 39.155,21.857 C 38.326,18.074 42.424,15.764 48,16.823 C 54.96,18.145 54.302,22.59 60.155,21.857 C 59.326,18.074 63.424,15.764 69,16.823 C 75.96,18.145 75.302,22.59 81.155,21.857 C 80.326,18.074 84.424,15.764 90,16.823 L 90,5.828 L 6,5.828 Z M 44.623,19.638 L 44.624,29.485 L 32.625,29.485 L 32.624,23.062 C 32.458,22.931 32.294,22.799 32.133,22.666 C 30.728,21.508 29.511,20.382 26.601,19.829 C 26.339,19.779 26.085,19.738 25.837,19.706 L 25.838,54.99 L 20.629,54.99 C 19.305,54.99 18.64,56.591 19.575,57.522 L 29.147,67.06 L 29.147,78.806 C 29.147,79.624 29.815,80.289 30.636,80.289 L 38.543,80.289 C 39.364,80.289 40.032,79.624 40.032,78.806 L 40.032,77.905 L 46.939,84.788 C 47.52,85.368 48.463,85.368 49.045,84.788 L 76.41,57.522 C 77.345,56.591 76.68,54.99 75.357,54.99 L 70.148,54.99 L 70.128,20.215 C 69.674,20.067 69.17,19.937 68.601,19.829 C 66.243,19.381 64.439,19.668 63.373,20.211 L 63.374,29.485 L 51.375,29.485 L 51.375,21.298 C 50.45,20.683 49.321,20.155 47.601,19.829 C 46.475,19.615 45.476,19.569 44.623,19.638 Z M 67.169,32.452 L 67.169,56.474 C 67.169,57.292 67.837,57.957 68.659,57.957 L 71.763,57.957 L 47.993,81.641 L 39.596,73.275 C 38.661,72.343 37.054,73.006 37.054,74.324 L 37.054,77.322 L 32.124,77.322 L 32.124,66.446 C 32.124,66.052 31.967,65.675 31.689,65.397 L 24.222,57.957 L 27.328,57.957 C 28.148,57.957 28.817,57.292 28.817,56.474 L 28.817,32.452 L 67.169,32.452 Z" marker-start="none" marker-end="none"/></g></g></g></g><text x="0" y="111" fill="#000000" font-size="5px" font-weight="bold" font-family="'Helvetica Neue', Helvetica, Arial-Unicode, Arial, Sans-serif">Created by Peter van Driel</text><text x="0" y="116" fill="#000000" font-size="5px" font-weight="bold" font-family="'Helvetica Neue', Helvetica, Arial-Unicode, Arial, Sans-serif">from the Noun Project</text></svg>