<?xml version="1.0" encoding="iso-8859-1"?>
<!-- Generator: Adobe Illustrator 19.0.0, SVG Export Plug-In . SVG Version: 6.00 Build 0)  -->
<svg version="1.1" id="Capa_1" xmlns="http://www.w3.org/2000/svg" xmlns:xlink="http://www.w3.org/1999/xlink" x="0px" y="0px"
	 viewBox="0 0 512 512" style="enable-background:new 0 0 512 512;" xml:space="preserve">
<g>
	<g>
		<path d="M256,160c-52.928,0-96,43.072-96,96c0,52.928,43.072,96,96,96c52.928,0,96-43.072,96-96C352,203.072,308.928,160,256,160z
			 M256,320c-35.296,0-64-28.704-64-64c0-35.296,28.704-64,64-64s64,28.704,64,64C320,291.296,291.296,320,256,320z"/>
	</g>
</g>
<g>
	<g>
		<path d="M335.616,12.576C334.016,5.248,327.52,0,320,0C178.848,0,64,114.848,64,256c0,105.888,86.112,192,192,192
			c8.832,0,16-7.168,16-16c0-8.832-7.168-16-16-16c-88.224,0-160-71.776-160-160c0-105.024,72.672-193.408,170.368-217.504
			c-8.256,9.152-16.64,20.256-24.256,33.536c-4.384,7.648-1.728,17.44,5.92,21.856c7.648,4.32,17.408,1.728,21.856-5.92
			c23.84-41.536,56.512-57.312,56.8-57.408C333.504,27.392,337.248,19.936,335.616,12.576z"/>
	</g>
</g>
<g>
	<g>
		<path d="M263.936,418.112c-7.648-4.384-17.44-1.792-21.856,5.92c-23.872,41.536-56.544,57.312-56.864,57.472
			c-7.968,3.712-11.456,13.184-7.776,21.184c2.688,5.856,8.512,9.312,14.56,9.312c2.24,0,4.512-0.48,6.656-1.472
			c1.696-0.768,41.952-19.712,71.2-70.56C274.24,432.288,271.584,422.528,263.936,418.112z"/>
	</g>
</g>
<g>
	<g>
		<path d="M256,64c-8.832,0-16,7.168-16,16c0,8.832,7.168,16,16,16c88.224,0,160,71.776,160,160c0,123.488-100.512,224-224,224
			c-8.832,0-16,7.168-16,16c0,8.832,7.168,16,16,16c141.152,0,256-114.848,256-256C448,150.112,361.888,64,256,64z"/>
	</g>
</g>
<g>
</g>
<g>
</g>
<g>
</g>
<g>
</g>
<g>
</g>
<g>
</g>
<g>
</g>
<g>
</g>
<g>
</g>
<g>
</g>
<g>
</g>
<g>
</g>
<g>
</g>
<g>
</g>
<g>
</g>
</svg>
