<?xml version="1.0" encoding="iso-8859-1"?>
<!-- Generator: Adobe Illustrator 19.0.0, SVG Export Plug-In . SVG Version: 6.00 Build 0)  -->
<svg version="1.1" id="Capa_1" xmlns="http://www.w3.org/2000/svg" xmlns:xlink="http://www.w3.org/1999/xlink" x="0px" y="0px"
	 viewBox="0 0 480.002 480.002" style="enable-background:new 0 0 480.002 480.002;" xml:space="preserve">
<g>
	<g>
		<path d="M472.005,304.002c-0.001,0-0.003,0-0.004,0c-16.381-0.082-32.127,6.332-43.789,17.836
			c-8.808,9.081-20.927,14.193-33.578,14.164c-9.611,0.29-19.025-2.767-26.633-8.647v-44.041l10.344,10.344
			c2.696,2.697,6.921,3.116,10.094,1l24-16c3.677-2.447,4.674-7.411,2.227-11.088c-0.309-0.464-0.665-0.894-1.062-1.283
			l-101.619-99.531l0.018-0.086v-51.355l10.344,10.344c2.696,2.697,6.921,3.116,10.094,1l24-16c3.677-2.451,4.671-7.419,2.22-11.097
			c-0.317-0.476-0.684-0.916-1.095-1.313L271.571,15.17c-13.956-17.436-39.404-20.257-56.84-6.301
			c-2.326,1.862-4.439,3.975-6.301,6.301l-85.992,83.078c-3.177,3.073-3.261,8.138-0.188,11.315
			c0.397,0.411,0.838,0.778,1.313,1.095l24,16c3.172,2.117,7.398,1.698,10.094-1l10.344-10.344v51.458L66.399,266.287
			c-3.156,3.09-3.209,8.153-0.119,11.309c0.39,0.398,0.82,0.754,1.283,1.063l24,16c3.172,2.117,7.398,1.698,10.094-1l10.344-10.344
			v43.977c-7.617,5.921-17.06,9.002-26.703,8.711c-12.64,0.027-24.749-5.084-33.547-14.16c-11.646-11.504-27.38-17.92-43.75-17.84
			c-4.417-0.001-7.999,3.579-8,7.996c0,0.001,0,0.003,0,0.004v160c-0.001,4.417,3.579,7.999,7.996,8c0.001,0,0.003,0,0.004,0h464
			c4.417,0.001,7.999-3.579,8-7.996c0-0.001,0-0.003,0-0.004v-160C480.002,307.585,476.422,304.003,472.005,304.002z
			 M112.001,464.002h-96v-143.41c9.67,1.897,18.561,6.62,25.547,13.57c11.646,11.504,27.38,17.92,43.75,17.84
			c9.249,0.188,18.407-1.849,26.703-5.941V464.002z M150.985,109.709l-10.281-6.855l79.25-76.567
			c0.283-0.274,0.544-0.569,0.781-0.883c8.303-10.64,23.66-12.534,34.3-4.231c1.578,1.232,2.999,2.653,4.231,4.231
			c0.237,0.314,0.498,0.609,0.781,0.883l79.25,76.567l-10.281,6.855l-19.354-19.354l-0.006-0.009l-64-64
			c-3.122-3.124-8.186-3.125-11.31-0.003c-0.001,0.001-0.002,0.002-0.003,0.003l-64,64l-0.006,0.009L150.985,109.709z
			 M296.001,99.315v51.788l-24.414-23.913c-13.945-17.444-39.391-20.281-56.836-6.336c-2.34,1.871-4.465,3.996-6.336,6.336
			l-24.414,23.913V99.315l56-56L296.001,99.315z M352.001,464.002h-224V335.029c0.348-0.287,0.711-0.579,1.055-0.863
			c18.047-18.535,47.703-18.93,66.238-0.883c0.297,0.289,0.59,0.582,0.879,0.879c24.329,23.785,63.2,23.787,87.531,0.004
			c18.06-18.54,47.73-18.93,66.271-0.87c0.294,0.286,0.584,0.576,0.87,0.87c0.377,0.312,0.775,0.631,1.156,0.945V464.002z
			 M352.001,314.806c-10.08-7.314-22.285-11.11-34.734-10.804c-16.375-0.081-32.114,6.334-43.766,17.84
			c-18.054,18.535-47.716,18.925-66.251,0.87c-0.295-0.288-0.587-0.579-0.874-0.874c-11.653-11.503-27.392-17.917-43.766-17.836
			c-12.4-0.306-24.558,3.464-34.609,10.731v-47.419l112-112l112,112V314.806z M365.657,258.346l-120-120
			c-3.122-3.124-8.186-3.125-11.31-0.003c-0.001,0.001-0.002,0.002-0.003,0.003l-120,120l-0.007,0.01l-19.353,19.353l-10.344-6.895
			l135.352-132.566c0.267-0.264,0.515-0.545,0.742-0.844c8.303-10.64,23.66-12.534,34.3-4.231c1.578,1.232,2.999,2.653,4.231,4.231
			c0.227,0.298,0.475,0.58,0.742,0.844L395.36,270.815l-10.344,6.895l-19.352-19.353L365.657,258.346z M464.001,464.002h-96V346.11
			c8.281,4.059,17.412,6.079,26.633,5.892c16.379,0.08,32.121-6.333,43.781-17.836c6.999-6.955,15.903-11.68,25.586-13.578V464.002z
			"/>
	</g>
</g>
<g>
	<g>
		<path d="M280.001,368.002c-13.255,0-24,10.745-24,24s10.745,24,24,24s24-10.745,24-24
			C303.987,378.753,293.25,368.017,280.001,368.002z M280.001,400.002c-4.418,0-8-3.582-8-8s3.582-8,8-8s8,3.582,8,8
			C287.997,396.418,284.417,399.998,280.001,400.002z"/>
	</g>
</g>
<g>
	<g>
		<path d="M424.001,400.002c-13.249,0.014-23.986,10.751-24,24c0,13.255,10.745,24,24,24s24-10.745,24-24
			S437.256,400.002,424.001,400.002z M424.001,432.002c-4.418,0-8-3.582-8-8s3.582-8,8-8c4.416,0.004,7.996,3.584,8,8
			C432.001,428.42,428.419,432.002,424.001,432.002z"/>
	</g>
</g>
<g>
	<g>
		<rect x="32.001" y="432.002" width="16" height="16"/>
	</g>
</g>
<g>
	<g>
		<rect x="48.001" y="400.002" width="16" height="16"/>
	</g>
</g>
<g>
	<g>
		<circle cx="192.001" cy="416.002" r="16"/>
	</g>
</g>
<g>
	<g>
		<rect x="160.001" y="344.002" width="16" height="16"/>
	</g>
</g>
<g>
</g>
<g>
</g>
<g>
</g>
<g>
</g>
<g>
</g>
<g>
</g>
<g>
</g>
<g>
</g>
<g>
</g>
<g>
</g>
<g>
</g>
<g>
</g>
<g>
</g>
<g>
</g>
<g>
</g>
</svg>
